<svg xmlns="http://www.w3.org/2000/svg" xmlns:xlink="http://www.w3.org/1999/xlink" width="360" height="128" viewBox="0 0 360 128">
  <defs>
    <linearGradient id="linear-gradient" x1="80" y1="106" x2="120" y2="106" gradientUnits="userSpaceOnUse">
      <stop offset="0" stop-color="#bdc1c6" stop-opacity="0"/>
      <stop offset="0.1372" stop-color="#bdc1c6" stop-opacity="0.0211"/>
      <stop offset="0.2794" stop-color="#bdc1c6" stop-opacity="0.0839"/>
      <stop offset="0.424" stop-color="#bdc1c6" stop-opacity="0.1888"/>
      <stop offset="0.5702" stop-color="#bdc1c6" stop-opacity="0.3357"/>
      <stop offset="0.7177" stop-color="#bdc1c6" stop-opacity="0.5249"/>
      <stop offset="0.8641" stop-color="#bdc1c6" stop-opacity="0.7529"/>
      <stop offset="1" stop-color="#bdc1c6"/>
    </linearGradient>
    <linearGradient id="linear-gradient-2" x1="164" y1="126" x2="227" y2="126" xlink:href="#linear-gradient"/>
    <linearGradient id="linear-gradient-4" x1="-442.1482" y1="580.8447" x2="-430.1482" y2="580.8447" gradientTransform="translate(111.6252 -609.8505) rotate(-45)" gradientUnits="userSpaceOnUse">
      <stop offset="0" stop-color="#1967d2"/>
      <stop offset="1" stop-color="#1967d2" stop-opacity="0"/>
    </linearGradient>
    <clipPath id="clip-path">
      <circle cx="180" cy="75.3309" r="20" fill="none"/>
    </clipPath>
  </defs>
  <g style="isolation: isolate">
    <g id="Content">
      <g>
        <g>
          <g>
            <rect x="21" y="51" width="62" height="32" fill="#fff"/>
            <path d="M82,52V82H22V52H82m2-2H20V84H84V50Z" fill="#e8eaed"/>
          </g>
          <g>
            <g>
              <path d="M21.1719,37.2939A5.0076,5.0076,0,0,1,24.707,31.17L79.7656,16.418l2.5879,9.6591L22.4658,42.124Z" fill="#f8f9fa"/>
              <path d="M79.0581,17.6424,81.1287,25.37,23.173,40.899l-1.0352-3.8637a4,4,0,0,1,2.8284-4.899L79.0581,17.6424m1.4142-2.4495L24.4485,30.2045a6,6,0,0,0-4.2426,7.3484l1.553,5.7955L83.5781,26.7841,80.4723,15.1929Z" fill="#e8eaed"/>
            </g>
            <g>
              <polygon points="69.54 19.157 78.399 16.784 71.328 29.031 62.469 31.405 69.54 19.157" fill="#fff"/>
              <path d="M76.326,18.3745l-5.6568,9.7979-6.1271,1.6418,5.6569-9.798,6.127-1.6417m4.1463-3.1816L68.8812,18.2988,60.3959,32.9957,71.987,29.89l8.4853-14.697Z" fill="#e8eaed"/>
            </g>
            <g>
              <polygon points="52.153 23.815 61.013 21.442 53.941 33.69 45.082 36.063 52.153 23.815" fill="#fff"/>
              <path d="M58.9394,23.0332l-5.6569,9.798-6.127,1.6418,5.6568-9.798,6.1271-1.6418m4.1462-3.1815L51.4945,22.9575l-8.4853,14.697L54.6,34.5486l8.4853-14.6969Z" fill="#e8eaed"/>
            </g>
          </g>
          <g>
            <rect x="21.002" y="41" width="62" height="10" fill="#f8f9fa"/>
            <path d="M82.0015,42v8h-60V42h60m2-2h-64V52h64V40Z" fill="#e8eaed"/>
          </g>
          <g>
            <polygon points="54.416 51 44.416 41 53.588 41 63.588 51 54.416 51" fill="#fff"/>
            <path d="M53.173,42l8,8H54.83l-8-8H53.173m.8285-2h-12l12,12h12l-12-12Z" fill="#e8eaed"/>
          </g>
          <g>
            <polygon points="72.416 51 62.416 41 71.588 41 81.588 51 72.416 51" fill="#fff"/>
            <path d="M71.173,42l8,8H72.83l-8-8H71.173m.8285-2h-12l12,12h12l-12-12Z" fill="#e8eaed"/>
          </g>
          <g>
            <path d="M26.002,51a5.0059,5.0059,0,0,1-5-5V36a5.0059,5.0059,0,0,1,5-5h8.5859l9.4141,9.4141V51Z" fill="#fff"/>
            <path d="M34.173,32l8.8285,8.8284V50h-17a4.0045,4.0045,0,0,1-4-4V36a4.0045,4.0045,0,0,1,4-4H34.173m.8285-2h-9a6,6,0,0,0-6,6V46a6,6,0,0,0,6,6h19V40l-10-10Z" fill="#e8eaed"/>
          </g>
          <circle cx="26.0015" cy="36" r="2" fill="#e8eaed"/>
          <circle cx="26.0015" cy="46" r="2" fill="#e8eaed"/>
          <circle cx="36.0015" cy="46" r="2" fill="#e8eaed"/>
          <g>
            <line x1="32" y1="59" x2="72" y2="59" fill="#fff" stroke="#e8eaed" stroke-linecap="round" stroke-miterlimit="10" stroke-width="2"/>
            <line x1="44" y1="59" x2="44" y2="75" fill="#fff" stroke="#e8eaed" stroke-linecap="round" stroke-miterlimit="10" stroke-width="2"/>
            <line x1="60" y1="59" x2="60" y2="75" fill="#fff" stroke="#e8eaed" stroke-linecap="round" stroke-miterlimit="10" stroke-width="2"/>
            <line x1="32" y1="75" x2="72" y2="75" fill="#fff" stroke="#e8eaed" stroke-linecap="round" stroke-miterlimit="10" stroke-width="2"/>
          </g>
          <line x1="65" y1="64" x2="69" y2="64" fill="#fff" stroke="#e8eaed" stroke-linecap="round" stroke-miterlimit="10" stroke-width="2"/>
          <line x1="50" y1="64" x2="54" y2="64" fill="#fff" stroke="#e8eaed" stroke-linecap="round" stroke-miterlimit="10" stroke-width="2"/>
          <line x1="35" y1="64" x2="39" y2="64" fill="#fff" stroke="#e8eaed" stroke-linecap="round" stroke-miterlimit="10" stroke-width="2"/>
        </g>
        <g>
          <g>
            <g>
              <path d="M276,15a7,7,0,0,1,0-14h64a7,7,0,0,1,0,14Z" fill="#f8f9fa"/>
              <path d="M340,2a6,6,0,0,1,0,12H276a6,6,0,0,1,0-12h64m0-2H276a8,8,0,0,0,0,16h64a8,8,0,0,0,0-16Z" fill="#e8eaed"/>
            </g>
            <g>
              <rect x="338" y="4" width="2" height="4" rx="1" fill="none" stroke="#e8eaed" stroke-linecap="round" stroke-miterlimit="10"/>
              <path d="M341.8292,8a3.0012,3.0012,0,0,1-5.6584,0" fill="none" stroke="#e8eaed" stroke-linecap="round" stroke-miterlimit="10"/>
              <line x1="339" y1="12" x2="339" y2="10" fill="none" stroke="#e8eaed" stroke-linecap="round" stroke-miterlimit="10"/>
            </g>
            <g>
              <circle cx="276" cy="7" r="2" fill="none" stroke="#e8eaed" stroke-linecap="round" stroke-miterlimit="10"/>
              <line x1="277.5" y1="8.5" x2="280" y2="11" fill="none" stroke="#e8eaed" stroke-linecap="round" stroke-miterlimit="10"/>
            </g>
          </g>
          <path d="M293,55a8,8,0,0,1-8-8h0a8,8,0,0,0,8,8h38V1H285V47" fill="#fff" stroke="#e8eaed" stroke-miterlimit="10" stroke-width="2"/>
          <path d="M339,55a8,8,0,0,0,8-8H301a8,8,0,0,1-8,8Z" fill="#f8f9fa" stroke="#e8eaed" stroke-miterlimit="10" stroke-width="2"/>
          <g>
            <rect x="291" y="7" width="34" height="8" fill="#f8f9fa" stroke="#e8eaed" stroke-linejoin="round" stroke-width="2"/>
            <rect x="308" y="20" width="18" height="2" rx="1" fill="#e8eaed"/>
            <rect x="308" y="26" width="18" height="2" rx="1" fill="#e8eaed"/>
            <rect x="290" y="38" width="36" height="2" rx="1" fill="#e8eaed"/>
            <rect x="308" y="32" width="18" height="2" rx="1" fill="#e8eaed"/>
          </g>
          <g>
            <path d="M289,18h18V36H289Z" fill="none"/>
            <path d="M297.9925,19.5A7.5,7.5,0,1,0,305.5,27,7.4963,7.4963,0,0,0,297.9925,19.5ZM303.19,24h-2.2125a11.7368,11.7368,0,0,0-1.035-2.67A6.0222,6.0222,0,0,1,303.19,24ZM298,21.03A10.5651,10.5651,0,0,1,299.4325,24h-2.865A10.5651,10.5651,0,0,1,298,21.03Zm-5.805,7.47a5.8667,5.8667,0,0,1,0-3h2.535a10.7668,10.7668,0,0,0,0,3Zm.615,1.5h2.2125a11.7368,11.7368,0,0,0,1.035,2.67A5.99,5.99,0,0,1,292.81,30Zm2.2125-6H292.81a5.99,5.99,0,0,1,3.2475-2.67A11.7368,11.7368,0,0,0,295.0225,24ZM298,32.97A10.5651,10.5651,0,0,1,296.5675,30h2.865A10.5651,10.5651,0,0,1,298,32.97Zm1.755-4.47h-3.51a9.435,9.435,0,0,1,0-3h3.51a9.435,9.435,0,0,1,0,3Zm.1875,4.17a11.7368,11.7368,0,0,0,1.035-2.67H303.19A6.0222,6.0222,0,0,1,299.9425,32.67ZM301.27,28.5a10.7668,10.7668,0,0,0,0-3h2.535a5.8667,5.8667,0,0,1,0,3Z" fill="#e8eaed"/>
          </g>
        </g>
        <g>
          <line x1="80" y1="7" x2="80" y2="1" fill="#fff" stroke="#e8eaed" stroke-linecap="round" stroke-miterlimit="10" stroke-width="2"/>
          <line x1="87.0711" y1="9.9289" x2="91.3137" y2="5.6863" fill="#fff" stroke="#e8eaed" stroke-linecap="round" stroke-miterlimit="10" stroke-width="2"/>
          <line x1="90" y1="17" x2="96" y2="17" fill="#fff" stroke="#e8eaed" stroke-linecap="round" stroke-miterlimit="10" stroke-width="2"/>
        </g>
        <rect x="80" y="104" width="40" height="4" fill="url(#linear-gradient)" style="mix-blend-mode: multiply"/>
        <g>
          <g>
            <rect x="113" y="23" width="134" height="84" fill="#fff"/>
            <path d="M246,24v82H114V24H246m2-2H112v86H248V22Z" fill="#e8eaed"/>
          </g>
          <g>
            <path d="M113,23V14a5.0059,5.0059,0,0,1,5-5H242a5.0059,5.0059,0,0,1,5,5v9Z" fill="#fff"/>
            <path d="M242,10a4.0045,4.0045,0,0,1,4,4v8H114V14a4.0045,4.0045,0,0,1,4-4H242m0-2H118a6,6,0,0,0-6,6V24H248V14a6,6,0,0,0-6-6Z" fill="#e8eaed"/>
          </g>
          <circle cx="120" cy="16" r="2" fill="#e8eaed"/>
        </g>
        <line x1="132" y1="34" x2="156" y2="34" fill="#fff" stroke="#e8eaed" stroke-linecap="round" stroke-miterlimit="10" stroke-width="2"/>
        <line x1="132" y1="42" x2="228" y2="42" fill="none" stroke="#4285f4" stroke-linecap="round" stroke-miterlimit="10" stroke-width="2"/>
        <line x1="132" y1="50" x2="176" y2="50" fill="#fff" stroke="#e8eaed" stroke-linecap="round" stroke-miterlimit="10" stroke-width="2"/>
        <rect x="164" y="124" width="63" height="4" fill="url(#linear-gradient-2)" style="mix-blend-mode: multiply"/>
        <rect width="360" height="128" fill="none"/>
        <g>
          <path d="M82,89a13,13,0,0,1,0-26H278a13,13,0,0,1,0,26Z" fill="#f8f9fa"/>
          <path d="M278,64a12,12,0,0,1,0,24H82a12,12,0,0,1,0-24H278m0-2H82a14,14,0,0,0,0,28H278a14,14,0,0,0,0-28Z" fill="#e8eaed"/>
        </g>
        <rect x="164" y="124" width="63" height="4" fill="url(#linear-gradient-2)" style="mix-blend-mode: multiply"/>
        <line x1="80" y1="76" x2="156" y2="76" fill="#fff" stroke="#e8eaed" stroke-linecap="round" stroke-miterlimit="10" stroke-width="2"/>
        <circle cx="180" cy="75.3309" r="20" fill="#d2e3fc"/>
        <g>
          <path d="M189.9411,103.2721h42a6,6,0,0,1,6,6v0a6,6,0,0,1-6,6h-42a0,0,0,0,1,0,0v-12A0,0,0,0,1,189.9411,103.2721Z" transform="translate(139.9291 -119.2742) rotate(45)" fill="#4285f4"/>
          <path d="M222.4263,126.2426,192.7279,96.5441l8.4853-8.4852,29.6984,29.6985a6,6,0,0,1,0,8.4852h0A6,6,0,0,1,222.4263,126.2426Z" opacity="0.3" fill="url(#linear-gradient-4)" style="mix-blend-mode: multiply"/>
          <path d="M199.799,55.5319a28,28,0,1,0,0,39.598A28,28,0,0,0,199.799,55.5319ZM165.8578,89.473a20,20,0,1,1,28.2843,0A20,20,0,0,1,165.8578,89.473Z" fill="#4285f4"/>
        </g>
        <g clip-path="url(#clip-path)">
          <g>
            <g>
              <rect x="147.2337" y="65.6641" width="36" height="22" transform="translate(25.4723 -40.1534) rotate(15)" fill="#174ea6"/>
              <path d="M150.2827,60.6957h13a3,3,0,0,1,3,3v19a0,0,0,0,1,0,0h-16a0,0,0,0,1,0,0v-22A0,0,0,0,1,150.2827,60.6957Z" transform="matrix(0.9659, 0.2588, -0.2588, 0.9659, 23.9496, -38.5236)" fill="#8ab4f8"/>
              <path d="M165.7375,64.8368h16a0,0,0,0,1,0,0v19a3,3,0,0,1-3,3h-13a0,0,0,0,1,0,0v-22A0,0,0,0,1,165.7375,64.8368Z" transform="translate(321.9271 194.0562) rotate(-165)" fill="#aecbfa"/>
              <path d="M147.8239,79.372h13a3,3,0,0,1,3,3v0a0,0,0,0,1,0,0h-16a0,0,0,0,1,0,0v-3A0,0,0,0,1,147.8239,79.372Z" transform="translate(26.2408 -37.5746) rotate(15)" fill="#669df6"/>
              <path d="M163.2788,83.5131h16a0,0,0,0,1,0,0v0a3,3,0,0,1-3,3h-13a0,0,0,0,1,0,0v-3A0,0,0,0,1,163.2788,83.5131Z" transform="translate(314.7183 211.4597) rotate(-165)" fill="#8ab4f8"/>
            </g>
            <polygon points="178.378 73.974 176.963 71.525 174.514 72.939 176.585 65.212 180.448 66.247 178.378 73.974" fill="#174ea6"/>
          </g>
        </g>
        <g>
          <rect x="276.5" y="69" width="3" height="7" rx="1.5" fill="none" stroke="#e8eaed" stroke-linecap="round" stroke-miterlimit="10" stroke-width="1.5"/>
          <path d="M282.2438,76a4.5018,4.5018,0,0,1-8.4876,0" fill="none" stroke="#e8eaed" stroke-linecap="round" stroke-miterlimit="10" stroke-width="1.5"/>
          <line x1="278" y1="82" x2="278" y2="79" fill="none" stroke="#e8eaed" stroke-linecap="round" stroke-miterlimit="10" stroke-width="1.5"/>
        </g>
        <g>
          <rect x="190.2484" y="47.7516" width="28" height="28" rx="4" transform="translate(-9.0229 54.9675) rotate(-15)" fill="#34a853"/>
          <circle cx="204.2484" cy="61.7516" r="8" fill="#fbbc04"/>
          <path d="M192.9162,65.8233a3.1563,3.1563,0,0,1,2.2857-3.8333,3.2829,3.2829,0,0,1,.9361-.1109,5.5543,5.5543,0,0,1,9.72-1.3364,1.8813,1.8813,0,0,1,.2869-.1044,1.8037,1.8037,0,0,1,2.2264,1.2439Z" fill="#fff"/>
          <path d="M215.9783,66.8908a4.6454,4.6454,0,0,0-8.8816-.3036,2.71,2.71,0,0,0-2.71,3.4094" fill="#fff"/>
        </g>
        <g>
          <path d="M140.3307,74.3387l5.9531.1157a1.4027,1.4027,0,0,0,1.0509-2.3614l-4.0711-4.3456a1.4027,1.4027,0,0,1-.3018-1.4178l1.95-5.6335a1.4027,1.4027,0,0,0-1.9216-1.7286l-5.3868,2.5292a1.4028,1.4028,0,0,1-1.4409-.15l-4.746-3.58a1.4026,1.4026,0,0,0-2.2368,1.2914l.7277,5.9a1.4026,1.4026,0,0,1-.5906,1.3228l-4.8837,3.4A1.4026,1.4026,0,0,0,124.97,72.21l5.8539,1.1276a1.4026,1.4026,0,0,1,1.077.97l1.7279,5.6984a1.4027,1.4027,0,0,0,2.57.2706l2.8763-5.2133A1.4023,1.4023,0,0,1,140.3307,74.3387Z" fill="#fbbc04"/>
          <rect x="123.6077" y="55.6077" width="24" height="24" transform="translate(-15.6359 76.8616) rotate(-30)" fill="none"/>
        </g>
        <g>
          <rect x="225.7412" y="74.9659" width="26" height="18" rx="3" transform="matrix(0.9659, 0.2588, -0.2588, 0.9659, 29.8669, -58.9297)" fill="#ea4335"/>
          <circle cx="238.7412" cy="83.9659" r="6" fill="#a50e0e"/>
          <rect x="232.5679" y="71.4949" width="4" height="2" transform="translate(26.7558 -58.2404) rotate(15)" fill="#a50e0e"/>
          <circle cx="238.7412" cy="83.9659" r="6" fill="#a50e0e"/>
          <circle cx="248.7286" cy="81.4657" r="1" fill="#a50e0e"/>
          <circle cx="238.7412" cy="83.9659" r="4" fill="#202124"/>
        </g>
        <g>
          <path d="M151.4129,52.0451l.9587,1.7377a.4676.4676,0,0,0,.8569-.09l.5759-1.8994a.4678.4678,0,0,1,.359-.3235l1.9513-.3758a.4675.4675,0,0,0,.1788-.8428l-1.6279-1.1335a.4675.4675,0,0,1-.1969-.441l.2426-1.9667a.4675.4675,0,0,0-.7456-.43l-1.582,1.1934a.4675.4675,0,0,1-.48.05l-1.7956-.843a.4676.4676,0,0,0-.6406.5762l.65,1.8778a.4676.4676,0,0,1-.1006.4726l-1.357,1.4485a.4675.4675,0,0,0,.35.7871l1.9843-.0385A.4676.4676,0,0,1,151.4129,52.0451Z" fill="#fbbc04"/>
          <rect x="148.5688" y="45.5598" width="8" height="8" transform="translate(45.2202 -69.6446) rotate(30)" fill="none"/>
        </g>
      </g>
    </g>
  </g>
</svg>
