<svg xmlns="http://www.w3.org/2000/svg" xmlns:xlink="http://www.w3.org/1999/xlink" width="96" height="96" viewBox="0 0 96 96">
  <defs>
    <clipPath id="clip-path">
      <circle cx="48" cy="48" r="40" fill="none"/>
    </clipPath>
    <linearGradient id="linear-gradient" x1="-156.5834" y1="-451.7487" x2="-148.5834" y2="-451.7487" gradientTransform="translate(499.369 283.5834) rotate(-45)" gradientUnits="userSpaceOnUse">
      <stop offset="0" stop-color="#1967d2"/>
      <stop offset="1" stop-color="#1967d2" stop-opacity="0"/>
    </linearGradient>
    <clipPath id="clip-path-2">
      <circle cx="48" cy="48" r="14" fill="none"/>
    </clipPath>
  </defs>
  <g style="isolation: isolate">
    <g id="Content">
      <g>
        <circle cx="48" cy="48" r="40" fill="#e8eaed"/>
        <g clip-path="url(#clip-path)">
          <g>
            <rect x="0.5" y="34.5" width="95" height="27" fill="#f8f9fa"/>
            <path d="M95,35V61H1V35H95m1-1H0V62H96V34Z" fill="#f8f9fa"/>
          </g>
          <line x1="4" y1="48" x2="48" y2="48" fill="none" stroke="#e8eaed" stroke-miterlimit="10" stroke-width="2"/>
        </g>
        <circle cx="48" cy="48" r="14" fill="#d2e3fc"/>
        <rect width="96" height="96" fill="none"/>
        <g>
          <path d="M68.0417,56.0416h8a0,0,0,0,1,0,0v28a4,4,0,0,1-4,4h0a4,4,0,0,1-4-4v-28a0,0,0,0,1,0,0Z" transform="translate(-29.8406 72.0416) rotate(-45)" fill="#4285f4"/>
          <path d="M83.3554,83.3553h0a4,4,0,0,1-5.6569,0L57.9,63.5563,63.5564,57.9l19.799,19.799A4,4,0,0,1,83.3554,83.3553Z" opacity="0.3" fill="url(#linear-gradient)" style="mix-blend-mode: multiply"/>
          <path d="M33.8579,33.8579a20,20,0,1,0,28.2843,0A20,20,0,0,0,33.8579,33.8579ZM57.9,57.9a14,14,0,1,1,0-19.799A14,14,0,0,1,57.9,57.9Z" fill="#4285f4"/>
        </g>
        <g clip-path="url(#clip-path-2)">
          <g>
            <g>
              <rect x="20.2158" y="41.1656" width="32" height="18" transform="translate(14.2178 -7.664) rotate(15)" fill="#174ea6"/>
              <path d="M23.1014,36.439h11a3,3,0,0,1,3,3v16a0,0,0,0,1,0,0h-14a0,0,0,0,1,0,0v-19A0,0,0,0,1,23.1014,36.439Z" transform="translate(12.9156 -6.2255) rotate(15)" fill="#8ab4f8"/>
              <path d="M36.6243,40.0625h14a0,0,0,0,1,0,0v16a3,3,0,0,1-3,3h-11a0,0,0,0,1,0,0v-19A0,0,0,0,1,36.6243,40.0625Z" transform="translate(72.9345 108.727) rotate(-165)" fill="#aecbfa"/>
              <path d="M21.0308,52.1664h11a3,3,0,0,1,3,3v0a0,0,0,0,1,0,0h-14a0,0,0,0,1,0,0v-3A0,0,0,0,1,21.0308,52.1664Z" transform="translate(14.845 -5.4263) rotate(15)" fill="#669df6"/>
              <path d="M34.5538,55.79h14a0,0,0,0,1,0,0v0a3,3,0,0,1-3,3h-11a0,0,0,0,1,0,0v-3A0,0,0,0,1,34.5538,55.79Z" transform="translate(66.864 123.3826) rotate(-165)" fill="#8ab4f8"/>
            </g>
            <polygon points="46.91 48.89 45.496 46.441 43.047 47.855 45.117 40.127 48.981 41.163 46.91 48.89" fill="#174ea6"/>
          </g>
        </g>
        <g>
          <rect x="53.574" y="22.574" width="20" height="20" rx="3" transform="matrix(0.9659, -0.2588, 0.2588, 0.9659, -6.2645, 17.5641)" fill="#34a853"/>
          <circle cx="63.574" cy="32.574" r="6" fill="#fbbc04"/>
          <path d="M72.8543,36.299a5.2223,5.2223,0,0,0-6.5288-3.427,5.5477,5.5477,0,0,0-3.7725,3.2988,3.4066,3.4066,0,0,0-.923.1161,3.0465,3.0465,0,0,0-2.2987,3.6355" fill="#fff"/>
        </g>
        <g>
          <path d="M10.0036,36.2944l.9527,3.8534a.9351.9351,0,0,0,1.7019.2693l2.0959-3.3714a.9353.9353,0,0,1,.861-.439l3.9642.284a.9351.9351,0,0,0,.7815-1.5356l-2.5581-3.0325a.9349.9349,0,0,1-.1521-.9537l1.4867-3.674A.9351.9351,0,0,0,17.92,26.4773l-3.6739,1.4868a.9354.9354,0,0,1-.9538-.1521L10.26,25.2538a.9351.9351,0,0,0-1.5357.7816L9.0079,30a.9352.9352,0,0,1-.439.861L5.1976,32.9565a.9351.9351,0,0,0,.2693,1.7019L9.32,35.611A.9353.9353,0,0,1,10.0036,36.2944Z" fill="#fbbc04"/>
          <rect x="5.5231" y="24.0916" width="16" height="16" transform="translate(26.653 -0.1629) rotate(45)" fill="none"/>
        </g>
        <g>
          <path d="M25.6149,15.641l.9588,1.7378a.4675.4675,0,0,0,.8568-.09l.576-1.8995a.4674.4674,0,0,1,.359-.3234l1.9513-.3758a.4676.4676,0,0,0,.1787-.8428l-1.6279-1.1336a.4676.4676,0,0,1-.1969-.4409l.2426-1.9668a.4676.4676,0,0,0-.7456-.4305l-1.582,1.1935a.4674.4674,0,0,1-.48.05L24.31,10.2757a.4676.4676,0,0,0-.64.5762l.65,1.8778a.4676.4676,0,0,1-.1006.4727l-1.357,1.4485a.4676.4676,0,0,0,.35.7871l1.9844-.0386A.4677.4677,0,0,1,25.6149,15.641Z" fill="#fbbc04"/>
          <rect x="22.7708" y="9.1558" width="8" height="8" transform="translate(10.1645 -11.6229) rotate(30)" fill="none"/>
        </g>
        <g>
          <rect x="74.8706" y="50.983" width="20" height="14" rx="2" transform="translate(17.899 -19.9904) rotate(15)" fill="#ea4335"/>
          <circle cx="84.8706" cy="57.983" r="5" fill="#a50e0e"/>
          <rect x="79.9991" y="48.815" width="3" height="1" transform="matrix(0.9659, 0.2588, -0.2588, 0.9659, 15.5407, -19.4132)" fill="#a50e0e"/>
          <circle cx="84.8706" cy="57.983" r="3.5" fill="#202124"/>
        </g>
      </g>
    </g>
  </g>
</svg>
