<svg id="Content" xmlns="http://www.w3.org/2000/svg" xmlns:xlink="http://www.w3.org/1999/xlink" width="96" height="96" viewBox="0 0 96 96">
  <defs>
    <clipPath id="clip-path">
      <circle cx="48" cy="48" r="40" fill="none"/>
    </clipPath>
    <clipPath id="clip-path-2">
      <rect width="96" height="96" fill="none" clip-path="url(#clip-path)"/>
    </clipPath>
  </defs>
  <g>
    <g>
      <g>
        <circle cx="48" cy="48" r="40" fill="#e8eaed"/>
        <rect width="96" height="96" fill="none"/>
      </g>
      <g clip-path="url(#clip-path-2)">
        <rect x="20" y="28" width="56" height="64" fill="#fcc934"/>
        <g>
          <rect x="26" y="71" width="20" height="2" rx="1" fill="#34a853"/>
          <rect x="26" y="77" width="44" height="2" rx="1" fill="#f29900"/>
          <rect x="26" y="83" width="32" height="2" rx="1" fill="#f29900"/>
        </g>
      </g>
      <rect x="26" y="34" width="44" height="32" fill="#feefc3"/>
      <g>
        <path d="M27.0821,18.3514l3.8134,1.1017A.9351.9351,0,0,0,31.98,18.1138L30.108,14.613a.935.935,0,0,1,.05-.9651l2.228-3.2911a.9351.9351,0,0,0-.9391-1.4447l-3.9053.6992a.9352.9352,0,0,1-.902-.3451L24.2015,6.1416a.9351.9351,0,0,0-1.6632.4457l-.5495,3.9251a.9348.9348,0,0,1-.6085.75l-3.7317,1.3471a.9351.9351,0,0,0-.0909,1.7207l3.575,1.7362a.9351.9351,0,0,1,.5262.8107l.1294,3.9676a.9351.9351,0,0,0,1.6085.6177l2.7518-2.8608A.9353.9353,0,0,1,27.0821,18.3514Z" fill="#fbbc04"/>
        <rect x="17.202" y="5.202" width="16" height="16" transform="translate(-2.5582 6.9726) rotate(-15)" fill="none"/>
      </g>
      <g>
        <path d="M8.38,37.9494l.9588,1.7377a.4675.4675,0,0,0,.8568-.09l.576-1.8994a.4675.4675,0,0,1,.359-.3235l1.9513-.3758a.4675.4675,0,0,0,.1787-.8428l-1.6279-1.1335a.4678.4678,0,0,1-.1969-.441l.2426-1.9668a.4675.4675,0,0,0-.7456-.43l-1.582,1.1934a.4675.4675,0,0,1-.48.05l-1.7956-.843a.4675.4675,0,0,0-.6405.5761l.65,1.8779a.4674.4674,0,0,1-.1006.4726l-1.357,1.4485a.4675.4675,0,0,0,.35.7871l1.9843-.0385A.4673.4673,0,0,1,8.38,37.9494Z" fill="#fbbc04"/>
        <rect x="5.5359" y="31.4641" width="8" height="8" transform="matrix(0.866, 0.5, -0.5, 0.866, 19.0096, -0.0167)" fill="none"/>
      </g>
    </g>
    <g>
      <circle cx="40" cy="51" r="10" fill="#ea4335"/>
      <ellipse cx="40" cy="51" rx="10" ry="3.9999" transform="translate(-19.7017 76.233) rotate(-74.8038)" fill="#fce8e6"/>
    </g>
    <g>
      <line x1="59" y1="56" x2="47" y2="56" fill="none" stroke="#0d652d" stroke-linecap="round" stroke-miterlimit="10"/>
      <g>
        <circle cx="47" cy="56" r="5" fill="#34a853"/>
        <circle cx="47" cy="56" r="4" fill="#202124"/>
      </g>
      <g>
        <circle cx="59" cy="56" r="5" fill="#34a853"/>
        <circle cx="59" cy="56" r="4" fill="#202124"/>
      </g>
    </g>
    <path d="M66,43a4.6454,4.6454,0,0,0-8.5-2.5919A2.7094,2.7094,0,0,0,54,43" fill="#fff"/>
  </g>
</svg>
